<svg id="Layer_1" data-name="Layer 1" xmlns="http://www.w3.org/2000/svg" viewBox="0 0 250.37 129.67"><defs><style>.cls-1,.cls-2{fill:#fff;}.cls-2{fill-rule:evenodd;}</style></defs><title>Levno_rev</title><path class="cls-1" d="M111.58,89.69A4.22,4.22,0,0,0,107.33,94v67a4.3,4.3,0,1,0,8.6,0V94A4.3,4.3,0,0,0,111.58,89.69Z" transform="translate(-87.42 -76.9)"/><path class="cls-1" d="M149.33,108.47c-13.06,0-22.3,8.39-23.46,22a82.26,82.26,0,0,0-.11,12.73c.74,13.91,9.66,22.83,24.1,22.83,6.26,0,13.48-1.38,16.87-3.4a4.26,4.26,0,0,0,2.34-3.82c0-2.66-2.65-4.78-6.16-3.4-5.2,1.81-9.44,2.76-12.95,2.76-9.44,0-15.81-5.84-15.81-15.6v-1.7h31.73c4.15,0,6.27-2,6.27-6.16v-3.18c0-6.8-2.12-12.31-6.27-16.56S156.22,108.47,149.33,108.47Zm14.43,23.89a1.25,1.25,0,0,1-1.38,1.27H134.15c-.32-10.72,5.09-17.41,15.28-17.41C158.67,116.22,164.29,122.7,163.76,132.36Z" transform="translate(-87.42 -76.9)"/><path class="cls-1" d="M221,109.22c-2,0-3.39,1.16-4.24,3.39l-15.61,43.63c-.31.53-.74.53-1.06,0l-15.92-44.05c-.74-2-2.12-3.08-3.93-3.08a4.37,4.37,0,0,0-4.14,6.16l16.46,43.84c1.59,4.35,4.24,6.58,8,6.58s6.58-2.23,8.28-6.69L225,115.37A4.42,4.42,0,0,0,221,109.22Z" transform="translate(-87.42 -76.9)"/><path class="cls-1" d="M253.71,108.47c-14.76,0-22.82,7.65-22.82,21.66V161a4.19,4.19,0,0,0,4.24,4.46,4.34,4.34,0,0,0,4.36-4.46V130.55c0-9.23,6-13.9,14.22-13.9s14.22,4.67,14.22,13.9V161a4.33,4.33,0,0,0,4.35,4.46,4.19,4.19,0,0,0,4.25-4.46V130.13C276.53,116.12,268.46,108.47,253.71,108.47Z" transform="translate(-87.42 -76.9)"/><path class="cls-1" d="M333,129.49a20.76,20.76,0,0,0-7.22-15.18c-4.35-3.93-9.87-5.84-16.45-5.84a24.19,24.19,0,0,0-16.56,6,21,21,0,0,0-7.11,15.07,118.4,118.4,0,0,0,0,15.07A21.38,21.38,0,0,0,292.86,160,23.67,23.67,0,0,0,309.31,166c6.58,0,12.1-2,16.45-6.06A21.38,21.38,0,0,0,333,144.56,118.4,118.4,0,0,0,333,129.49ZM324.38,144c-.74,8.39-6.58,13.91-15.07,13.91S295,152.42,294.24,144a100.75,100.75,0,0,1,0-13.9c.53-8.07,6.26-13.59,15.07-13.59s14.54,5.52,15.07,13.59A100.75,100.75,0,0,1,324.38,144Z" transform="translate(-87.42 -76.9)"/><path class="cls-2" d="M327.42,97.09a39.41,39.41,0,0,0-36.25,0,4.13,4.13,0,0,0,1.9,7.79,4.08,4.08,0,0,0,1.9-.47,31.23,31.23,0,0,1,28.67,0,4.12,4.12,0,1,0,3.78-7.32Z" transform="translate(-87.42 -76.9)"/><path class="cls-2" d="M335.62,83.54a55.37,55.37,0,0,0-52.64,0,4.13,4.13,0,0,0,3.94,7.25,47.13,47.13,0,0,1,44.77,0,4.12,4.12,0,1,0,3.93-7.25Z" transform="translate(-87.42 -76.9)"/><path class="cls-2" d="M309.31,124.91a4.16,4.16,0,1,0,4.16,4.15A4.16,4.16,0,0,0,309.31,124.91Z" transform="translate(-87.42 -76.9)"/><path class="cls-1" d="M92.88,92.58v1.2H90.74v5.46h-1.2V93.78H87.42v-1.2Z" transform="translate(-87.42 -76.9)"/><path class="cls-1" d="M100.39,92.58v6.66h-1.2V94.32l-2.06,3-2.06-3v4.92h-1.2V92.58H95.2l1.93,2.79,1.93-2.79Z" transform="translate(-87.42 -76.9)"/><path class="cls-1" d="M112.87,199.4a1.27,1.27,0,1,1-2.54,0V179.63a1.25,1.25,0,0,1,1.26-1.28,1.26,1.26,0,0,1,1.28,1.28Z" transform="translate(-87.42 -76.9)"/><path class="cls-1" d="M131.17,191.63a1.62,1.62,0,0,1-1.85,1.82H120v.5a4.32,4.32,0,0,0,4.67,4.6,12.23,12.23,0,0,0,3.82-.81,1.2,1.2,0,0,1,1.81,1,1.25,1.25,0,0,1-.68,1.12,11.45,11.45,0,0,1-5,1c-4.26,0-6.9-2.63-7.11-6.74a23,23,0,0,1,0-3.76,6.62,6.62,0,0,1,6.92-6.48,6.42,6.42,0,0,1,4.88,1.91,6.68,6.68,0,0,1,1.85,4.89Zm-2.88-.32a.37.37,0,0,0,.41-.37c.16-2.85-1.5-4.76-4.23-4.76-3,0-4.61,2-4.51,5.13Z" transform="translate(-87.42 -76.9)"/><path class="cls-1" d="M140.06,200.87c-3.22,0-4.82-2.07-4.82-5.17V182.07a1.24,1.24,0,0,1,1.25-1.28,1.28,1.28,0,0,1,1.29,1.28v2.57h4.72a1.16,1.16,0,1,1,0,2.32h-4.72v8.83c0,1.66.78,2.73,2.41,2.73a12,12,0,0,0,2.5-.57,1.18,1.18,0,0,1,1.63,1.16,1.26,1.26,0,0,1-1,1.23A9.3,9.3,0,0,1,140.06,200.87Z" transform="translate(-87.42 -76.9)"/><path class="cls-1" d="M155.37,191.44c2.79.72,4.17,2.19,4.17,4.42,0,3-2.42,5-6.08,5a8.55,8.55,0,0,1-5.58-1.76,1.31,1.31,0,0,1-.25-1.69,1.15,1.15,0,0,1,1.76-.25,6.06,6.06,0,0,0,4.29,1.41c2.1,0,3.35-1.1,3.35-2.6,0-1.1-.84-1.85-2.5-2.25-1.48-.35-2.23-.51-2.26-.54-2.94-.75-4.42-2.22-4.42-4.44,0-3,2.38-4.86,5.86-4.86a7,7,0,0,1,4.48,1.35,1.23,1.23,0,0,1,.16,1.75,1.22,1.22,0,0,1-1.7.16,5.92,5.92,0,0,0-3-.94c-2.2,0-3.29.81-3.29,2.44,0,1,.66,1.66,2.44,2.16l1.6.38Z" transform="translate(-87.42 -76.9)"/><path class="cls-1" d="M170.72,186a1.27,1.27,0,0,1,1.19-1.82,1.33,1.33,0,0,1,1.19.91L178,196.23c.1.16.16.16.25,0l4.42-11.09a1.32,1.32,0,0,1,1.25-1,1.28,1.28,0,0,1,1.19,1.82l-5.89,14.28c-1.15,2.79-2.94,5.11-4.35,5.95a2.2,2.2,0,0,1-1.13.38,1.2,1.2,0,0,1-1.25-1.19,1.16,1.16,0,0,1,.59-1.1,8.32,8.32,0,0,0,3.64-4.73Z" transform="translate(-87.42 -76.9)"/><path class="cls-1" d="M201.7,194.54a6.27,6.27,0,0,1-2.13,4.54,6.87,6.87,0,0,1-4.85,1.79,7,7,0,0,1-4.86-1.79,6.35,6.35,0,0,1-2.13-4.54,36.7,36.7,0,0,1,0-4.45,6.21,6.21,0,0,1,2.1-4.44,7.16,7.16,0,0,1,4.89-1.76,7,7,0,0,1,4.85,1.72,6.11,6.11,0,0,1,2.13,4.48A33,33,0,0,1,201.7,194.54Zm-11.43-.16a4.46,4.46,0,0,0,8.9,0,31.16,31.16,0,0,0,0-4.1,4.47,4.47,0,0,0-8.9,0A31.16,31.16,0,0,0,190.27,194.38Z" transform="translate(-87.42 -76.9)"/><path class="cls-1" d="M206.06,185.43a1.28,1.28,0,0,1,1.26-1.32,1.3,1.3,0,0,1,1.28,1.32v9.08c0,2.47,1.57,4,4.2,4a7.57,7.57,0,0,0,4.32-1.16V185.43a1.27,1.27,0,0,1,1.25-1.32,1.31,1.31,0,0,1,1.29,1.32V198a1.15,1.15,0,0,1-.54,1,10.77,10.77,0,0,1-6.32,1.88c-4.11,0-6.74-2.35-6.74-6.39Z" transform="translate(-87.42 -76.9)"/><path class="cls-1" d="M246.9,185.3a1.25,1.25,0,0,1-.37.91l-6.17,5.92,6.26,6.36a1.22,1.22,0,0,1,.07,1.85,1.29,1.29,0,0,1-1.82,0l-6-6.14a2.37,2.37,0,0,0-1.73-.75h-.56v6a1.25,1.25,0,0,1-1.28,1.31,1.32,1.32,0,0,1-1.26-1.31V179.63a1.25,1.25,0,0,1,1.26-1.28,1.26,1.26,0,0,1,1.28,1.28v11.31h.53a2.42,2.42,0,0,0,1.76-.72l5.85-5.77a1.2,1.2,0,0,1,.94-.4A1.26,1.26,0,0,1,246.9,185.3Z" transform="translate(-87.42 -76.9)"/><path class="cls-1" d="M264.25,199.4a1.23,1.23,0,0,1-1.25,1.31,1.28,1.28,0,0,1-1.29-1.31v-9a3.84,3.84,0,0,0-4.19-4.11,8.34,8.34,0,0,0-4.33,1V199.4a1.25,1.25,0,0,1-1.25,1.31,1.27,1.27,0,0,1-1.28-1.31V186.71a1.35,1.35,0,0,1,.56-1.13,11.37,11.37,0,0,1,6.36-1.69c4.35,0,6.67,2.26,6.67,6.39Z" transform="translate(-87.42 -76.9)"/><path class="cls-1" d="M282.7,194.54a6.32,6.32,0,0,1-2.14,4.54,6.87,6.87,0,0,1-4.85,1.79,7,7,0,0,1-4.85-1.79,6.27,6.27,0,0,1-2.13-4.54,33,33,0,0,1,0-4.45,6.17,6.17,0,0,1,2.09-4.44,7.16,7.16,0,0,1,4.89-1.76,7,7,0,0,1,4.85,1.72,6.15,6.15,0,0,1,2.14,4.48A36.7,36.7,0,0,1,282.7,194.54Zm-11.44-.16a4.46,4.46,0,0,0,8.9,0,31.16,31.16,0,0,0,0-4.1,4.47,4.47,0,0,0-8.9,0A31.16,31.16,0,0,0,271.26,194.38Z" transform="translate(-87.42 -76.9)"/><path class="cls-1" d="M297.48,187c0-.09-.06-.12-.16-.12s-.15,0-.15.12L294,199a2.25,2.25,0,0,1-2.26,2,2.38,2.38,0,0,1-2.34-1.94l-3.64-13.16a1.32,1.32,0,0,1,1.16-1.81,1.11,1.11,0,0,1,1.16.91l3.54,13.21c.06.22.25.22.31,0l3.17-12.27a2.35,2.35,0,0,1,2.25-1.85,2.31,2.31,0,0,1,2.26,1.88l3.16,12.24c.06.22.25.22.31,0l3.42-13.12a1.13,1.13,0,0,1,1.25-1,1.34,1.34,0,0,1,1.16,1.81L305.21,199A2.32,2.32,0,0,1,302.9,201a2.24,2.24,0,0,1-2.32-1.94Z" transform="translate(-87.42 -76.9)"/></svg>